<?xml version="1.0" encoding="UTF-8"?>
<svg xmlns="http://www.w3.org/2000/svg" xmlns:xlink="http://www.w3.org/1999/xlink" width="100" zoomAndPan="magnify" viewBox="0 0 75 74.999997" height="100" preserveAspectRatio="xMidYMid meet" version="1.0">
  <defs>
    <clipPath id="6679ce2817">
      <path d="M 23 1.136719 L 54 1.136719 L 54 21 L 23 21 Z M 23 1.136719 " clip-rule="nonzero"></path>
    </clipPath>
    <clipPath id="8d50a6818a">
      <path d="M 8 22 L 69 22 L 69 73.886719 L 8 73.886719 Z M 8 22 " clip-rule="nonzero"></path>
    </clipPath>
  </defs>
  <g clip-path="url(#6679ce2817)">
    <path fill="#002f5a" d="M 31.742188 20.179688 C 36.1875 19.632812 40.628906 19.632812 44.984375 20.179688 L 52.960938 9.296875 C 53.324219 8.660156 53.054688 7.574219 51.964844 7.210938 L 47.792969 5.578125 L 44.984375 11.109375 C 44.800781 11.472656 44.257812 12.015625 43.441406 11.65625 C 42.898438 11.382812 42.714844 10.65625 42.988281 10.113281 L 46.613281 3.128906 C 46.886719 2.496094 46.160156 1.136719 44.527344 1.136719 L 32.195312 1.136719 C 30.5625 1.136719 29.839844 2.3125 30.109375 3.039062 L 33.917969 10.023438 C 34.191406 10.566406 34.011719 11.292969 33.464844 11.5625 C 33.101562 11.746094 32.289062 11.746094 31.925781 11.109375 L 28.933594 5.578125 L 24.761719 7.300781 C 23.945312 7.664062 23.308594 8.570312 23.761719 9.386719 Z M 31.742188 20.179688 " fill-opacity="1" fill-rule="nonzero"></path>
  </g>
  <g clip-path="url(#8d50a6818a)">
    <path fill="#002f5a" d="M 68.558594 57.359375 C 66.113281 38.132812 46.613281 23.171875 45.074219 22.535156 C 44.347656 22.171875 41.355469 22.082031 38.453125 22.082031 C 35.550781 22.082031 32.558594 22.265625 31.832031 22.535156 C 30.292969 23.171875 10.796875 38.132812 8.347656 57.359375 C 7.710938 62.164062 8.710938 65.972656 11.160156 68.785156 C 15.601562 73.863281 23.582031 73.863281 23.671875 73.863281 L 53.234375 73.863281 C 53.324219 73.863281 61.304688 73.769531 65.75 68.785156 C 68.195312 65.972656 69.105469 62.164062 68.558594 57.359375 Z M 44.4375 45.207031 C 45.074219 45.207031 45.4375 45.660156 45.4375 46.203125 C 45.4375 46.75 44.984375 47.109375 44.4375 47.109375 L 31.5625 47.109375 C 31.378906 47.835938 31.378906 48.5625 31.378906 49.289062 C 31.378906 50.011719 31.472656 50.738281 31.5625 51.464844 L 44.527344 51.464844 C 45.164062 51.464844 45.617188 52.007812 45.617188 52.550781 C 45.617188 53.1875 45.074219 53.640625 44.527344 53.640625 L 32.195312 53.640625 C 33.738281 57.539062 37.457031 60.078125 41.628906 60.167969 C 43.167969 60.167969 44.621094 59.804688 45.980469 59.171875 C 46.523438 58.898438 47.25 59.082031 47.523438 59.714844 C 47.792969 60.257812 47.613281 60.984375 46.976562 61.257812 C 45.34375 62.074219 43.441406 62.527344 41.628906 62.527344 C 36.277344 62.4375 31.5625 58.898438 29.839844 53.820312 L 26.210938 53.820312 C 25.578125 53.820312 25.125 53.277344 25.125 52.734375 C 25.125 52.097656 25.667969 51.644531 26.210938 51.644531 L 29.203125 51.644531 C 28.933594 50.195312 28.933594 48.742188 29.203125 47.292969 L 26.121094 47.292969 C 25.484375 47.292969 25.03125 46.75 25.03125 46.203125 C 25.03125 45.660156 25.578125 45.117188 26.121094 45.117188 L 29.75 45.117188 C 31.472656 40.039062 36.1875 36.5 41.535156 36.410156 C 43.441406 36.410156 45.34375 36.863281 46.976562 37.769531 C 47.523438 38.042969 47.792969 38.769531 47.523438 39.3125 C 47.25 39.855469 46.523438 40.128906 45.980469 39.855469 C 44.621094 39.132812 43.078125 38.769531 41.535156 38.769531 C 37.367188 38.859375 33.738281 41.308594 32.105469 45.117188 Z M 44.4375 45.207031 " fill-opacity="1" fill-rule="nonzero"></path>
  </g>
</svg>
